<mxfile host="app.diagrams.net" modified="2022-06-06T17:01:19.777Z" agent="5.0 (Windows NT 10.0; Win64; x64) AppleWebKit/537.36 (KHTML, like Gecko) Chrome/102.0.5005.63 Safari/537.36 Edg/102.0.1245.33" etag="OQJcYh6SAl53TPtFk3fr" version="19.0.1" type="github">
  <diagram id="R2lEEEUBdFMjLlhIrx00" name="Page-1">
    <mxGraphModel dx="2062" dy="1154" grid="1" gridSize="10" guides="1" tooltips="1" connect="1" arrows="1" fold="1" page="1" pageScale="1" pageWidth="850" pageHeight="1100" math="0" shadow="0" extFonts="Permanent Marker^https://fonts.googleapis.com/css?family=Permanent+Marker">
      <root>
        <mxCell id="0" />
        <mxCell id="1" parent="0" />
        <mxCell id="jA4tWhCNYggQTSU8s1cA-1" value="&lt;b&gt;SCHEDULE&lt;/b&gt;&lt;br&gt;&lt;br&gt;ID&lt;br&gt;Created at&lt;br&gt;Updated at&lt;br&gt;Screen ID&lt;br&gt;Movie ID&lt;br&gt;Showing Time Start&lt;br&gt;Showing Time End" style="rounded=1;whiteSpace=wrap;html=1;" vertex="1" parent="1">
          <mxGeometry x="130" y="90" width="120" height="160" as="geometry" />
        </mxCell>
        <mxCell id="jA4tWhCNYggQTSU8s1cA-2" value="&lt;font style=&quot;font-size: 24px;&quot;&gt;&lt;b&gt;CINEMA&lt;/b&gt;&lt;/font&gt;" style="text;html=1;strokeColor=none;fillColor=none;align=center;verticalAlign=middle;whiteSpace=wrap;rounded=0;" vertex="1" parent="1">
          <mxGeometry x="40" y="30" width="120" height="40" as="geometry" />
        </mxCell>
        <mxCell id="jA4tWhCNYggQTSU8s1cA-3" value="&lt;font style=&quot;font-size: 12px;&quot;&gt;&lt;b&gt;SCREEN&lt;/b&gt;&lt;br&gt;ID&lt;br&gt;Created at&lt;br&gt;Updated at&lt;br&gt;Max Capacity&lt;br&gt;&lt;/font&gt;" style="rounded=1;whiteSpace=wrap;html=1;fontSize=24;" vertex="1" parent="1">
          <mxGeometry x="45" y="320" width="110" height="180" as="geometry" />
        </mxCell>
        <mxCell id="jA4tWhCNYggQTSU8s1cA-4" value="&lt;font style=&quot;font-size: 12px;&quot;&gt;&lt;b&gt;MOVIES&lt;/b&gt;&lt;br&gt;ID&lt;br&gt;Created at&lt;br&gt;Updated at&lt;br&gt;Name&lt;br&gt;Rating&lt;br&gt;Runtime&lt;br&gt;&lt;/font&gt;" style="rounded=1;whiteSpace=wrap;html=1;fontSize=24;" vertex="1" parent="1">
          <mxGeometry x="240" y="320" width="110" height="210" as="geometry" />
        </mxCell>
        <mxCell id="jA4tWhCNYggQTSU8s1cA-5" value="&lt;font style=&quot;font-size: 12px;&quot;&gt;&lt;b&gt;CONTACT&lt;/b&gt;&lt;br&gt;ID&lt;br&gt;Created at&lt;br&gt;Updated at&lt;br&gt;First Name&lt;br&gt;Last Name&lt;br&gt;Email&lt;br&gt;&lt;/font&gt;" style="rounded=1;whiteSpace=wrap;html=1;fontSize=24;" vertex="1" parent="1">
          <mxGeometry x="520" y="590" width="110" height="220" as="geometry" />
        </mxCell>
        <mxCell id="jA4tWhCNYggQTSU8s1cA-6" value="&lt;font style=&quot;font-size: 12px;&quot;&gt;&lt;b&gt;ORDER&lt;/b&gt;&lt;br&gt;ID&lt;br&gt;Created at&lt;br&gt;Updated at&lt;br&gt;Movie ID&lt;br&gt;Screen ID&lt;br&gt;Contact Customer&lt;br&gt;Seat ID&lt;br&gt;Contact Payer&lt;br&gt;&lt;/font&gt;" style="rounded=1;whiteSpace=wrap;html=1;fontSize=24;" vertex="1" parent="1">
          <mxGeometry x="520" y="250" width="110" height="270" as="geometry" />
        </mxCell>
        <mxCell id="jA4tWhCNYggQTSU8s1cA-7" value="" style="curved=1;endArrow=classic;html=1;rounded=0;fontSize=12;exitX=0;exitY=0.5;exitDx=0;exitDy=0;entryX=0.5;entryY=0;entryDx=0;entryDy=0;" edge="1" parent="1" source="jA4tWhCNYggQTSU8s1cA-1" target="jA4tWhCNYggQTSU8s1cA-3">
          <mxGeometry width="50" height="50" relative="1" as="geometry">
            <mxPoint x="400" y="360" as="sourcePoint" />
            <mxPoint x="40" y="420" as="targetPoint" />
            <Array as="points">
              <mxPoint x="70" y="210" />
              <mxPoint x="70" y="270" />
            </Array>
          </mxGeometry>
        </mxCell>
        <mxCell id="jA4tWhCNYggQTSU8s1cA-8" value="&lt;b&gt;1 to many&lt;/b&gt;" style="text;html=1;strokeColor=none;fillColor=none;align=center;verticalAlign=middle;whiteSpace=wrap;rounded=0;fontSize=12;" vertex="1" parent="1">
          <mxGeometry x="20" y="280" width="60" height="30" as="geometry" />
        </mxCell>
        <mxCell id="jA4tWhCNYggQTSU8s1cA-10" value="" style="curved=1;endArrow=classic;html=1;rounded=0;fontSize=12;exitX=1;exitY=0.5;exitDx=0;exitDy=0;entryX=0.5;entryY=0;entryDx=0;entryDy=0;" edge="1" parent="1" source="jA4tWhCNYggQTSU8s1cA-1" target="jA4tWhCNYggQTSU8s1cA-4">
          <mxGeometry width="50" height="50" relative="1" as="geometry">
            <mxPoint x="140" y="180" as="sourcePoint" />
            <mxPoint x="110" y="330" as="targetPoint" />
            <Array as="points">
              <mxPoint x="300" y="210" />
              <mxPoint x="370" y="270" />
            </Array>
          </mxGeometry>
        </mxCell>
        <mxCell id="jA4tWhCNYggQTSU8s1cA-11" value="&lt;b&gt;1 to many&lt;/b&gt;" style="text;html=1;strokeColor=none;fillColor=none;align=center;verticalAlign=middle;whiteSpace=wrap;rounded=0;fontSize=12;" vertex="1" parent="1">
          <mxGeometry x="340" y="280" width="60" height="30" as="geometry" />
        </mxCell>
        <mxCell id="jA4tWhCNYggQTSU8s1cA-12" value="" style="endArrow=classic;html=1;rounded=0;fontSize=12;exitX=1.011;exitY=0.392;exitDx=0;exitDy=0;exitPerimeter=0;" edge="1" parent="1" source="jA4tWhCNYggQTSU8s1cA-1" target="jA4tWhCNYggQTSU8s1cA-6">
          <mxGeometry width="50" height="50" relative="1" as="geometry">
            <mxPoint x="400" y="360" as="sourcePoint" />
            <mxPoint x="450" y="310" as="targetPoint" />
          </mxGeometry>
        </mxCell>
        <mxCell id="jA4tWhCNYggQTSU8s1cA-13" value="&lt;b&gt;1 to many&lt;/b&gt;" style="text;html=1;strokeColor=none;fillColor=none;align=center;verticalAlign=middle;whiteSpace=wrap;rounded=0;fontSize=12;" vertex="1" parent="1">
          <mxGeometry x="440" y="260" width="60" height="30" as="geometry" />
        </mxCell>
        <mxCell id="jA4tWhCNYggQTSU8s1cA-14" value="&lt;font style=&quot;font-size: 12px;&quot;&gt;&lt;b&gt;SEAT&lt;/b&gt;&lt;br&gt;ID&lt;br&gt;Created at&lt;br&gt;Updated at&lt;br&gt;Row&lt;br&gt;Number&lt;br&gt;&lt;/font&gt;" style="rounded=1;whiteSpace=wrap;html=1;fontSize=24;" vertex="1" parent="1">
          <mxGeometry x="50" y="560" width="110" height="170" as="geometry" />
        </mxCell>
        <mxCell id="jA4tWhCNYggQTSU8s1cA-15" value="" style="endArrow=classic;html=1;rounded=0;fontSize=12;exitX=0.5;exitY=0;exitDx=0;exitDy=0;entryX=0.5;entryY=1;entryDx=0;entryDy=0;" edge="1" parent="1" source="jA4tWhCNYggQTSU8s1cA-14" target="jA4tWhCNYggQTSU8s1cA-3">
          <mxGeometry width="50" height="50" relative="1" as="geometry">
            <mxPoint x="400" y="370" as="sourcePoint" />
            <mxPoint x="450" y="320" as="targetPoint" />
          </mxGeometry>
        </mxCell>
        <mxCell id="jA4tWhCNYggQTSU8s1cA-16" value="&lt;b&gt;many to many&lt;/b&gt;" style="text;html=1;strokeColor=none;fillColor=none;align=center;verticalAlign=middle;whiteSpace=wrap;rounded=0;fontSize=12;" vertex="1" parent="1">
          <mxGeometry x="110" y="520" width="90" height="30" as="geometry" />
        </mxCell>
        <mxCell id="jA4tWhCNYggQTSU8s1cA-17" value="" style="endArrow=classic;html=1;rounded=0;fontSize=12;exitX=0;exitY=0.75;exitDx=0;exitDy=0;entryX=1.006;entryY=0.361;entryDx=0;entryDy=0;entryPerimeter=0;" edge="1" parent="1" source="jA4tWhCNYggQTSU8s1cA-6" target="jA4tWhCNYggQTSU8s1cA-14">
          <mxGeometry width="50" height="50" relative="1" as="geometry">
            <mxPoint x="400" y="370" as="sourcePoint" />
            <mxPoint x="170" y="610" as="targetPoint" />
          </mxGeometry>
        </mxCell>
        <mxCell id="jA4tWhCNYggQTSU8s1cA-20" value="&lt;b&gt;1 to many&lt;/b&gt;" style="text;html=1;strokeColor=none;fillColor=none;align=center;verticalAlign=middle;whiteSpace=wrap;rounded=0;fontSize=12;" vertex="1" parent="1">
          <mxGeometry x="475" y="540" width="60" height="30" as="geometry" />
        </mxCell>
        <mxCell id="jA4tWhCNYggQTSU8s1cA-22" value="&lt;b&gt;1 to many&lt;/b&gt;" style="text;html=1;strokeColor=none;fillColor=none;align=center;verticalAlign=middle;whiteSpace=wrap;rounded=0;fontSize=12;" vertex="1" parent="1">
          <mxGeometry x="250" y="580" width="60" height="30" as="geometry" />
        </mxCell>
        <mxCell id="jA4tWhCNYggQTSU8s1cA-24" value="The cinema can" style="text;html=1;align=center;verticalAlign=middle;resizable=0;points=[];autosize=1;strokeColor=none;fillColor=none;fontSize=12;" vertex="1" parent="1">
          <mxGeometry x="30" y="880" width="100" height="20" as="geometry" />
        </mxCell>
        <mxCell id="jA4tWhCNYggQTSU8s1cA-27" value="" style="endArrow=classic;html=1;rounded=0;fontSize=12;" edge="1" parent="1">
          <mxGeometry width="50" height="50" relative="1" as="geometry">
            <mxPoint x="140" y="880" as="sourcePoint" />
            <mxPoint x="200" y="850" as="targetPoint" />
          </mxGeometry>
        </mxCell>
        <mxCell id="jA4tWhCNYggQTSU8s1cA-28" value="" style="endArrow=classic;html=1;rounded=0;fontSize=12;" edge="1" parent="1">
          <mxGeometry width="50" height="50" relative="1" as="geometry">
            <mxPoint x="145" y="979.5" as="sourcePoint" />
            <mxPoint x="195" y="979.5" as="targetPoint" />
          </mxGeometry>
        </mxCell>
        <mxCell id="jA4tWhCNYggQTSU8s1cA-29" value="" style="endArrow=classic;html=1;rounded=0;fontSize=12;" edge="1" parent="1">
          <mxGeometry width="50" height="50" relative="1" as="geometry">
            <mxPoint x="140" y="900" as="sourcePoint" />
            <mxPoint x="200" y="920" as="targetPoint" />
          </mxGeometry>
        </mxCell>
        <mxCell id="jA4tWhCNYggQTSU8s1cA-30" value="Update/change their schedule with new movies" style="text;html=1;strokeColor=none;fillColor=none;align=center;verticalAlign=middle;whiteSpace=wrap;rounded=0;fontSize=12;" vertex="1" parent="1">
          <mxGeometry x="210" y="840" width="260" height="30" as="geometry" />
        </mxCell>
        <mxCell id="jA4tWhCNYggQTSU8s1cA-31" value="Expand their cinema with new screens" style="text;html=1;strokeColor=none;fillColor=none;align=center;verticalAlign=middle;whiteSpace=wrap;rounded=0;fontSize=12;" vertex="1" parent="1">
          <mxGeometry x="200" y="875" width="230" height="30" as="geometry" />
        </mxCell>
        <mxCell id="jA4tWhCNYggQTSU8s1cA-32" value="The costumer can" style="text;html=1;align=center;verticalAlign=middle;resizable=0;points=[];autosize=1;strokeColor=none;fillColor=none;fontSize=12;" vertex="1" parent="1">
          <mxGeometry x="35" y="970" width="110" height="20" as="geometry" />
        </mxCell>
        <mxCell id="jA4tWhCNYggQTSU8s1cA-33" value="" style="endArrow=classic;html=1;rounded=0;fontSize=12;" edge="1" parent="1">
          <mxGeometry width="50" height="50" relative="1" as="geometry">
            <mxPoint x="145" y="970" as="sourcePoint" />
            <mxPoint x="205" y="940" as="targetPoint" />
          </mxGeometry>
        </mxCell>
        <mxCell id="jA4tWhCNYggQTSU8s1cA-34" value="" style="endArrow=classic;html=1;rounded=0;fontSize=12;" edge="1" parent="1">
          <mxGeometry width="50" height="50" relative="1" as="geometry">
            <mxPoint x="145" y="889.5" as="sourcePoint" />
            <mxPoint x="195" y="889.5" as="targetPoint" />
          </mxGeometry>
        </mxCell>
        <mxCell id="jA4tWhCNYggQTSU8s1cA-35" value="" style="endArrow=classic;html=1;rounded=0;fontSize=12;" edge="1" parent="1">
          <mxGeometry width="50" height="50" relative="1" as="geometry">
            <mxPoint x="145" y="990" as="sourcePoint" />
            <mxPoint x="205" y="1010" as="targetPoint" />
          </mxGeometry>
        </mxCell>
        <mxCell id="jA4tWhCNYggQTSU8s1cA-36" value="Make an order for a specific seat in a movie of their choice" style="text;html=1;strokeColor=none;fillColor=none;align=center;verticalAlign=middle;whiteSpace=wrap;rounded=0;fontSize=12;" vertex="1" parent="1">
          <mxGeometry x="205" y="930" width="330" height="30" as="geometry" />
        </mxCell>
        <mxCell id="jA4tWhCNYggQTSU8s1cA-37" value="Receive an email confirmation" style="text;html=1;strokeColor=none;fillColor=none;align=center;verticalAlign=middle;whiteSpace=wrap;rounded=0;fontSize=12;" vertex="1" parent="1">
          <mxGeometry x="205" y="965" width="175" height="30" as="geometry" />
        </mxCell>
        <mxCell id="jA4tWhCNYggQTSU8s1cA-38" value="Buy a ticket for someone else, the receipt is sent to the payer, the ticket is sent to the customer" style="text;html=1;strokeColor=none;fillColor=none;align=center;verticalAlign=middle;whiteSpace=wrap;rounded=0;fontSize=12;" vertex="1" parent="1">
          <mxGeometry x="205" y="995" width="330" height="30" as="geometry" />
        </mxCell>
        <mxCell id="jA4tWhCNYggQTSU8s1cA-39" value="Stop selling tickets when a screening is at max capacity" style="text;html=1;strokeColor=none;fillColor=none;align=center;verticalAlign=middle;whiteSpace=wrap;rounded=0;fontSize=12;" vertex="1" parent="1">
          <mxGeometry x="200" y="905" width="320" height="30" as="geometry" />
        </mxCell>
        <mxCell id="jA4tWhCNYggQTSU8s1cA-43" value="" style="endArrow=classic;html=1;rounded=0;fontSize=12;exitX=0.5;exitY=1;exitDx=0;exitDy=0;entryX=0.5;entryY=0;entryDx=0;entryDy=0;" edge="1" parent="1" source="jA4tWhCNYggQTSU8s1cA-6" target="jA4tWhCNYggQTSU8s1cA-5">
          <mxGeometry width="50" height="50" relative="1" as="geometry">
            <mxPoint x="400" y="460" as="sourcePoint" />
            <mxPoint x="450" y="410" as="targetPoint" />
          </mxGeometry>
        </mxCell>
      </root>
    </mxGraphModel>
  </diagram>
</mxfile>
